<?xml version="1.0" standalone="no"?>
<!DOCTYPE svg PUBLIC "-//W3C//DTD SVG 20010904//EN"
 "http://www.w3.org/TR/2001/REC-SVG-20010904/DTD/svg10.dtd">
<svg version="1.0" xmlns="http://www.w3.org/2000/svg"
 width="2160.000000pt" height="2160.000000pt" viewBox="0 0 2160.000000 2160.000000"
 preserveAspectRatio="xMidYMid meet">
<metadata>
Created by potrace 1.11, written by Peter Selinger 2001-2013
</metadata>
<g transform="translate(0.000000,2160.000000) scale(0.100000,-0.100000)"
fill="#000000" stroke="none">
<path d="M13169 20916 c-2 -3 -38 -6 -79 -7 -246 -7 -536 -144 -742 -350 -32
-31 -58 -55 -58 -53 0 3 -15 -12 -32 -33 -18 -20 -48 -52 -66 -70 -18 -18 -30
-33 -26 -33 3 0 -6 -13 -19 -30 -14 -16 -58 -83 -98 -147 -40 -65 -77 -120
-81 -121 -4 -2 -6 -7 -3 -12 3 -4 -2 -13 -10 -20 -8 -7 -15 -16 -15 -21 0 -5
-16 -33 -35 -63 -19 -30 -35 -57 -35 -60 0 -2 -24 -47 -54 -100 -30 -52 -51
-97 -48 -100 3 -3 0 -6 -6 -6 -7 0 -12 -6 -12 -13 0 -7 -6 -19 -12 -25 -7 -7
-13 -16 -13 -20 0 -12 -89 -187 -98 -193 -5 -3 -8 -9 -8 -13 1 -7 -9 -31 -66
-161 -22 -49 -57 -130 -77 -180 -21 -49 -44 -105 -53 -124 -8 -18 -16 -39 -18
-45 -1 -6 -5 -20 -10 -31 -53 -139 -86 -230 -89 -244 -2 -9 -6 -23 -9 -31 -22
-58 -78 -247 -93 -312 -2 -10 -6 -28 -9 -40 -3 -13 -7 -35 -10 -50 -3 -14 -17
-75 -31 -134 -14 -59 -28 -117 -30 -128 -10 -53 -17 -87 -32 -156 -16 -72 -50
-254 -57 -305 -4 -22 -9 -51 -11 -65 -9 -41 -16 -102 -18 -142 0 -21 -4 -38
-7 -38 -3 0 -6 -12 -6 -27 0 -16 -4 -59 -7 -98 -8 -76 -11 -122 -22 -260 -3
-49 -8 -99 -11 -110 -3 -11 -7 -218 -9 -460 -3 -347 0 -462 11 -545 15 -101
21 -155 30 -250 2 -25 6 -56 9 -70 3 -14 8 -47 12 -74 3 -28 9 -57 14 -67 5
-9 7 -19 4 -21 -2 -3 7 -53 21 -112 13 -59 27 -119 30 -134 3 -15 8 -36 10
-47 3 -11 7 -29 9 -40 3 -11 30 -105 61 -210 32 -104 61 -203 65 -220 20 -72
94 -289 132 -385 50 -128 53 -136 68 -180 12 -35 81 -210 105 -265 7 -16 34
-79 60 -140 26 -60 58 -134 72 -164 50 -109 66 -146 70 -166 2 -11 8 -21 13
-23 6 -2 10 -9 10 -15 0 -11 52 -134 78 -182 9 -16 16 -32 15 -35 0 -3 4 -16
10 -30 6 -14 11 -27 12 -30 0 -3 11 -27 24 -55 32 -71 136 -371 146 -425 2 -8
4 -16 5 -17 3 -3 3 -3 14 -53 5 -19 11 -39 14 -44 3 -6 7 -19 8 -30 1 -12 16
-75 32 -141 17 -66 33 -140 37 -165 4 -25 9 -54 12 -65 2 -11 6 -31 8 -45 2
-14 6 -38 9 -55 3 -16 8 -48 11 -70 3 -22 8 -51 10 -65 3 -14 7 -56 11 -95 3
-38 8 -86 11 -105 2 -19 6 -251 8 -515 3 -470 2 -506 -29 -697 -3 -21 -10 -58
-16 -83 -6 -26 -8 -51 -5 -56 4 -5 1 -9 -5 -9 -6 0 -10 -8 -9 -18 1 -9 0 -20
-1 -24 -1 -5 -4 -17 -5 -28 -1 -11 -4 -22 -5 -25 -4 -7 -5 -15 -14 -65 -5 -25
-22 -97 -38 -160 -17 -63 -32 -124 -34 -135 -1 -11 -3 -20 -4 -20 -2 0 -11
-37 -12 -52 -1 -7 -5 -13 -10 -13 -5 0 -7 -4 -4 -8 5 -9 -27 -132 -67 -252
-14 -41 -23 -78 -21 -81 2 -4 50 9 106 28 111 37 136 44 156 45 6 1 12 5 12
10 0 5 4 7 8 4 4 -2 21 1 37 8 17 8 59 25 95 39 36 15 79 32 95 38 17 7 32 13
35 14 23 8 76 32 141 65 42 21 80 36 83 33 3 -4 6 -1 6 5 0 7 4 12 10 12 11 0
282 149 290 160 3 4 12 10 20 14 61 29 319 209 426 297 23 19 57 46 76 61 19
15 46 37 60 50 14 13 55 50 93 83 37 33 104 96 149 141 l81 81 38 164 c21 90
40 173 42 184 2 11 4 20 5 20 2 0 7 21 15 60 7 36 70 286 84 333 5 17 7 32 4
32 -3 0 -1 6 4 13 6 6 11 19 11 27 1 19 2 26 52 200 23 80 44 152 45 160 2 8
4 15 6 15 1 0 3 9 5 20 5 33 127 400 182 546 63 166 141 351 187 442 19 37 33
67 30 67 -3 0 3 9 12 20 9 10 18 26 19 34 1 7 20 45 42 82 22 38 48 85 59 104
29 53 95 154 105 161 6 3 8 8 7 10 -3 4 26 51 48 79 6 8 50 65 97 125 46 61
105 132 131 158 46 48 46 49 18 46 -15 -2 -33 -7 -39 -11 -7 -5 -20 -10 -30
-13 -11 -2 -62 -22 -114 -45 -52 -23 -104 -45 -115 -50 -72 -31 -291 -144
-297 -154 -4 -6 -8 -7 -8 -3 0 5 -15 0 -32 -11 -18 -11 -49 -29 -68 -40 -85
-47 -331 -201 -375 -235 -5 -4 -57 -42 -115 -84 -58 -43 -112 -84 -120 -93 -8
-8 -35 -31 -60 -51 -25 -20 -57 -48 -72 -62 -16 -14 -28 -24 -28 -23 0 2 -26
-21 -58 -52 -104 -102 -292 -277 -301 -280 -5 -2 -3 21 5 50 8 29 16 64 19 78
3 23 18 99 30 160 3 14 10 54 16 90 5 36 12 79 15 95 3 17 7 51 9 77 1 26 5
50 7 55 20 40 15 712 -6 818 -2 11 -7 45 -12 75 -4 30 -8 57 -9 60 -1 3 -5 21
-10 40 -4 19 -9 42 -10 50 -3 23 -23 95 -57 200 -70 221 -152 510 -172 610 -3
14 -24 104 -46 200 -38 159 -53 234 -53 268 0 6 -3 12 -7 12 -3 0 -7 12 -7 28
0 15 -4 41 -7 57 -4 17 -9 46 -12 65 -2 19 -7 51 -11 70 -3 19 -7 44 -8 55 -3
25 -15 121 -20 155 -29 201 -21 707 16 1018 5 46 7 87 4 92 -4 6 -2 10 3 10 5
0 9 6 9 13 0 26 14 104 37 216 10 46 57 206 72 246 9 22 15 40 14 40 -1 0 4
14 10 30 7 17 13 39 15 50 1 11 4 21 5 23 1 1 3 5 4 10 7 31 70 209 77 217 5
5 9 15 9 22 0 7 21 57 47 110 25 54 48 103 49 108 2 6 16 44 31 85 23 63 28
91 28 175 0 89 -4 107 -30 165 -35 79 -117 165 -201 211 -96 53 -277 71 -371
37 -39 -14 -41 -14 -30 3 6 10 14 16 18 14 10 -7 118 114 134 150 33 80 40
168 23 303 -1 6 -4 12 -8 12 -3 0 -12 16 -19 35 -7 19 -17 35 -22 35 -5 0 -9
6 -9 13 -1 12 -90 96 -94 87 -1 -3 -10 3 -20 13 -10 9 -22 15 -27 12 -5 -4 -9
-2 -9 3 0 10 -31 20 -90 30 -73 12 -155 2 -228 -27 -29 -12 -56 -21 -60 -21
-29 0 -106 233 -103 314 1 15 -3 34 -9 41 -6 7 -7 16 -2 19 4 2 9 26 11 52 1
25 6 67 12 93 5 25 12 60 15 76 3 17 11 36 16 43 6 6 8 12 4 12 -11 0 44 112
89 179 81 123 278 272 404 307 31 8 63 18 71 21 52 19 264 21 345 2 33 -7 65
-14 70 -14 44 -4 179 -71 245 -121 93 -70 106 -97 63 -129 -157 -116 -203
-329 -109 -502 16 -29 42 -66 59 -83 37 -38 117 -94 117 -83 0 4 4 2 9 -5 4
-7 17 -15 27 -17 10 -2 19 -4 19 -5 0 -4 46 -10 101 -14 166 -9 337 107 388
262 28 87 35 192 20 312 -3 25 -6 55 -7 68 0 12 -4 22 -7 22 -4 0 -6 10 -5 23
1 12 -1 27 -5 32 -3 6 -12 30 -19 55 -47 164 -166 345 -315 479 -44 39 -151
111 -165 111 -5 0 -11 4 -13 9 -5 13 -124 66 -213 95 -95 30 -149 42 -230 51
-33 4 -63 9 -67 12 -5 2 -8 -2 -8 -9 0 -10 -2 -10 -8 0 -5 7 -10 10 -13 8z"/>
<path d="M11915 20402 c-3 -3 -31 -6 -62 -7 -32 -2 -58 -3 -58 -4 0 -1 -21 -4
-47 -6 -109 -10 -309 -96 -420 -182 -138 -105 -279 -279 -336 -413 -26 -62
-63 -169 -68 -200 -2 -14 -8 -47 -13 -75 -5 -27 -7 -109 -6 -182 3 -122 2
-132 -16 -136 -10 -3 -19 -1 -19 4 0 9 -86 5 -135 -6 -143 -31 -275 -126 -361
-260 -21 -33 -39 -62 -39 -65 -1 -3 -16 -36 -34 -75 -18 -38 -34 -74 -35 -80
-1 -5 -6 -17 -11 -25 -5 -8 -10 -20 -11 -26 -1 -6 -27 -62 -57 -125 -64 -133
-119 -260 -182 -425 -25 -66 -49 -128 -54 -139 -16 -35 -35 -90 -37 -103 -1
-7 -23 -74 -49 -149 -26 -75 -49 -145 -51 -157 -9 -38 -12 -51 -14 -51 -1 0
-3 -7 -5 -15 -1 -9 -16 -65 -33 -125 -17 -61 -33 -121 -36 -135 -3 -14 -19
-89 -36 -168 -16 -79 -32 -158 -34 -175 -3 -18 -5 -32 -6 -32 -2 0 -6 -20 -20
-108 -7 -40 -14 -79 -15 -88 -5 -24 -17 -120 -21 -154 -1 -16 -5 -46 -8 -65
-12 -75 -38 -298 -51 -435 -6 -64 -17 -262 -16 -282 1 -7 1 -19 1 -25 -6 -200
-5 -520 2 -524 4 -3 5 -10 1 -17 -3 -6 -6 -27 -5 -46 5 -123 12 -251 17 -285
2 -23 7 -75 10 -116 3 -41 8 -92 10 -112 3 -21 7 -57 10 -80 3 -24 8 -59 10
-78 6 -40 14 -106 20 -165 3 -22 8 -51 11 -65 3 -14 6 -32 6 -40 0 -8 7 -49
15 -90 19 -98 18 -96 48 -235 14 -66 28 -131 30 -145 3 -14 8 -36 11 -50 3
-14 8 -36 10 -49 3 -14 8 -29 12 -35 3 -6 7 -17 8 -26 0 -8 13 -59 28 -113 15
-53 29 -106 31 -117 2 -11 7 -25 10 -30 4 -6 8 -21 10 -33 8 -39 132 -406 184
-542 71 -186 151 -376 204 -483 25 -51 47 -96 48 -100 7 -26 182 -362 219
-422 33 -53 90 -151 90 -155 0 -3 23 -39 50 -81 28 -41 50 -77 50 -79 0 -14
296 -452 338 -501 11 -12 68 -88 97 -129 104 -146 285 -328 285 -286 0 13 -19
48 -39 74 -8 9 -11 17 -8 17 4 0 -7 23 -23 50 -17 28 -30 53 -30 56 0 5 -129
265 -150 303 -54 95 -193 456 -207 536 -3 17 -9 35 -14 41 -5 6 -6 14 -2 17 3
4 1 7 -5 7 -6 0 -9 7 -6 15 3 8 2 20 -2 27 -5 7 -10 22 -11 32 -2 10 -12 53
-22 95 -11 42 -22 94 -26 116 -3 22 -8 51 -11 65 -4 23 -7 41 -18 130 -2 19
-5 35 -6 35 -2 0 -6 46 -15 170 -4 50 -12 96 -18 104 -9 11 -9 13 -1 8 8 -5
11 4 9 26 -2 17 -4 34 -4 37 -3 7 1 205 4 270 2 30 6 102 9 160 4 58 10 121
15 140 4 20 7 44 5 55 -2 11 1 24 5 30 5 5 8 17 9 25 0 17 10 83 17 120 21
106 29 142 42 189 8 29 17 61 18 70 2 9 4 16 6 16 1 0 3 9 4 20 7 46 60 213
100 310 4 11 7 23 7 28 -1 4 3 7 10 7 6 0 8 3 5 6 -12 13 69 150 121 204 l53
55 -26 75 c-15 41 -31 83 -36 94 -8 14 -8 16 3 10 10 -6 11 -5 2 7 -7 8 -17
30 -22 49 -46 159 -83 288 -86 305 -2 11 -25 101 -50 200 -46 179 -52 209 -63
295 -3 25 -9 47 -14 48 -5 2 -7 7 -5 10 2 4 -2 45 -9 92 -26 167 -51 357 -62
465 -14 155 -6 890 12 1055 2 25 7 74 10 110 4 36 8 76 10 90 4 24 9 72 20
185 7 65 13 115 18 140 8 33 20 119 20 143 1 12 4 22 7 22 3 0 6 10 7 23 0 36
13 106 38 212 14 55 27 116 31 135 8 44 12 64 14 68 2 1 4 11 5 22 1 11 3 21
5 23 1 1 4 16 6 32 3 17 21 92 40 169 19 76 36 146 38 155 2 9 5 23 8 31 3 8
29 89 58 180 29 91 57 169 62 174 4 6 8 16 8 24 0 11 42 126 91 247 7 17 13
32 14 35 7 21 30 75 55 125 16 33 38 83 50 110 54 124 240 486 301 585 5 8 15
29 23 45 8 17 73 124 144 239 72 115 128 214 126 220 -4 11 -139 18 -149 8z"/>
<path d="M8704 17815 c8 -23 42 -166 50 -210 3 -16 7 -41 10 -55 2 -14 12 -70
20 -125 9 -55 18 -110 20 -123 11 -55 20 -218 20 -347 -1 -148 -15 -279 -40
-383 -9 -35 -17 -68 -18 -75 -1 -7 -5 -18 -9 -24 -5 -7 -5 -17 -2 -23 3 -5 2
-10 -2 -10 -5 0 -9 -9 -10 -19 -3 -40 -149 -371 -172 -391 -3 -3 -13 -18 -21
-35 -8 -16 -41 -72 -72 -123 -32 -51 -58 -95 -58 -98 0 -2 -16 -26 -35 -53
-19 -26 -35 -53 -35 -60 0 -6 -3 -11 -7 -11 -5 0 -21 -25 -38 -55 -16 -30 -33
-55 -37 -55 -4 0 -8 -7 -8 -15 0 -8 -4 -15 -10 -15 -5 0 -10 -7 -10 -15 0 -8
-4 -15 -8 -15 -5 0 -9 -6 -9 -12 0 -7 -14 -33 -30 -58 -89 -131 -336 -591
-403 -750 -34 -82 -70 -163 -79 -180 -6 -12 -92 -275 -107 -330 -24 -84 -113
-445 -118 -476 -4 -21 -9 -50 -12 -64 -8 -45 -12 -64 -19 -115 -4 -27 -9 -58
-11 -68 -8 -44 -34 -249 -39 -312 -3 -38 -8 -90 -11 -115 -9 -65 -11 -500 -3
-600 4 -47 10 -125 13 -175 3 -49 8 -101 10 -115 3 -14 12 -74 21 -135 9 -60
19 -121 21 -135 3 -14 7 -36 9 -50 2 -14 6 -36 9 -50 4 -14 9 -41 12 -60 3
-19 8 -42 11 -50 3 -8 8 -24 10 -35 2 -11 17 -68 33 -126 16 -59 31 -117 34
-130 2 -13 10 -37 16 -54 7 -16 14 -37 15 -45 3 -15 57 -170 93 -265 75 -197
265 -593 312 -650 7 -8 10 -15 6 -15 -3 0 14 -32 39 -70 25 -39 45 -72 45 -75
0 -6 241 -367 250 -375 3 -3 21 -25 40 -50 19 -25 39 -48 45 -52 6 -5 6 -8 0
-8 -7 0 -7 -3 0 -8 6 -4 30 -32 55 -62 25 -30 49 -58 55 -62 5 -4 6 -8 1 -8
-5 0 0 -8 10 -17 11 -10 44 -47 74 -83 65 -77 55 -66 152 -171 165 -181 401
-410 592 -574 33 -27 64 -55 70 -60 6 -6 45 -38 86 -70 81 -65 116 -94 134
-110 6 -6 27 -22 46 -35 19 -13 40 -28 45 -33 6 -4 35 -26 65 -48 30 -22 64
-48 75 -57 11 -9 32 -24 46 -34 103 -66 374 -346 532 -549 168 -215 394 -671
432 -871 2 -10 6 -22 9 -26 3 -5 7 -19 10 -33 3 -13 14 -64 25 -114 24 -109
29 -143 36 -220 9 -96 12 -115 18 -122 4 -3 2 -14 -3 -24 -6 -10 -6 -20 -2
-23 5 -3 7 -27 5 -53 -3 -35 -1 -45 7 -37 6 6 13 18 14 25 2 8 6 21 9 29 21
48 104 310 99 310 -3 0 -1 5 5 11 6 6 9 18 6 25 -3 8 1 14 8 14 7 0 10 3 6 6
-3 3 1 27 8 52 34 116 83 317 79 324 -3 4 -1 8 3 8 5 0 9 8 9 18 0 9 15 94 32
187 17 94 34 188 36 210 3 22 7 51 10 65 7 32 19 153 20 208 1 23 3 42 6 42 3
0 7 28 9 63 6 109 4 779 -2 857 -15 185 -23 265 -27 265 0 0 -3 25 -5 55 -3
30 -7 62 -11 70 -3 8 -7 33 -10 55 -2 22 -15 99 -30 170 -14 72 -28 148 -30
170 -3 22 -10 42 -15 43 -5 2 -7 7 -5 11 4 6 -18 100 -69 286 -43 160 -203
603 -226 629 -5 6 -9 15 -9 22 0 30 -196 424 -292 587 -30 51 -150 233 -168
254 -10 12 -97 142 -115 172 -5 9 -22 32 -37 52 -16 20 -28 41 -28 47 0 7 -4
12 -10 12 -5 0 -10 6 -10 14 0 8 -4 16 -8 18 -11 4 -192 275 -192 287 0 5 -4
11 -8 13 -4 2 -29 37 -55 78 -25 41 -50 80 -54 86 -12 16 -29 44 -73 119 -22
39 -45 77 -50 85 -16 24 -120 211 -120 215 0 2 -13 27 -30 55 -16 27 -27 50
-25 50 2 0 -13 33 -34 74 -21 40 -46 93 -55 117 -10 24 -23 55 -29 69 -6 14
-11 27 -12 30 -1 3 -8 22 -17 42 -9 20 -26 65 -38 100 -12 35 -26 72 -30 83
-36 87 -107 354 -112 423 -1 6 -5 12 -9 12 -5 0 -6 7 -3 15 3 8 2 20 -2 27 -5
7 -9 18 -10 23 -1 6 -13 53 -27 105 -14 52 -29 113 -32 135 -3 22 -8 54 -11
70 -9 50 -13 78 -19 135 -6 63 -13 115 -15 115 -10 0 -14 539 -5 660 3 39 8
108 11 155 8 123 12 175 14 175 0 0 3 32 6 70 9 113 19 236 34 405 12 129 17
191 26 300 9 113 11 525 3 610 -19 204 -35 295 -74 430 -2 8 -10 31 -18 50 -8
19 -20 51 -27 70 -13 33 -103 210 -168 330 -16 30 -40 75 -53 100 -13 25 -26
47 -29 50 -3 3 -16 25 -29 50 -14 25 -27 47 -30 50 -9 8 -71 100 -71 105 0 3
-21 26 -46 53 -27 27 -44 39 -40 27z"/>
<path d="M8605 17492 c-3 -16 -20 -72 -36 -123 -17 -52 -32 -101 -34 -109 -16
-62 -124 -349 -167 -440 -17 -36 -31 -71 -31 -77 0 -7 -5 -13 -10 -13 -6 0 -8
-3 -4 -6 3 -3 -12 -39 -33 -80 -21 -41 -36 -74 -33 -74 3 0 0 -6 -6 -13 -6 -8
-26 -42 -44 -78 -72 -136 -122 -226 -154 -271 -18 -26 -33 -52 -33 -58 0 -5
-4 -10 -9 -10 -5 0 -13 -10 -17 -22 -4 -13 -21 -42 -38 -64 -17 -23 -38 -52
-46 -64 -28 -42 -133 -185 -159 -216 -14 -17 -39 -49 -56 -70 -31 -40 -44 -54
-147 -169 -61 -67 -127 -134 -514 -517 -99 -97 -204 -205 -235 -240 -31 -35
-73 -81 -93 -103 -21 -22 -61 -67 -91 -100 -29 -33 -63 -72 -76 -86 -33 -35
-127 -143 -183 -208 -25 -30 -46 -59 -46 -63 0 -5 -4 -7 -9 -3 -5 3 -12 -3
-15 -13 -3 -9 -22 -34 -42 -55 -20 -20 -33 -37 -30 -37 4 0 -3 -10 -15 -22
-12 -13 -40 -48 -63 -78 -22 -30 -43 -57 -46 -60 -7 -7 -76 -100 -133 -180
-25 -36 -50 -69 -55 -75 -23 -28 -232 -353 -232 -361 0 -3 -15 -28 -33 -57
-18 -29 -36 -59 -40 -67 -4 -8 -23 -44 -43 -80 -39 -72 -162 -316 -187 -370
-9 -19 -41 -90 -71 -158 -31 -68 -56 -130 -56 -138 0 -7 -4 -14 -10 -14 -5 0
-10 -6 -10 -14 0 -8 -14 -45 -31 -83 -17 -37 -30 -68 -29 -68 1 0 -3 -11 -9
-25 -33 -81 -93 -237 -96 -251 -2 -9 -8 -25 -13 -35 -6 -11 -18 -41 -27 -69
-9 -27 -27 -79 -40 -115 -43 -120 -134 -435 -150 -520 -3 -14 -10 -50 -17 -80
-6 -30 -12 -62 -13 -70 -1 -8 -9 -53 -18 -100 -16 -84 -19 -102 -32 -190 -4
-25 -9 -58 -11 -73 -2 -15 -7 -53 -9 -85 -3 -31 -8 -79 -10 -107 -3 -27 -7
-106 -10 -175 -2 -69 -5 -125 -5 -125 -6 0 -4 -198 2 -201 3 -2 3 -17 -2 -33
-5 -19 -4 -33 3 -40 8 -8 8 -11 -2 -11 -7 0 -9 -5 -6 -10 6 -10 15 -115 16
-200 1 -19 4 -39 7 -45 4 -5 7 -30 8 -55 1 -25 2 -45 3 -45 1 0 4 -20 6 -45 5
-50 32 -193 65 -340 12 -52 23 -104 26 -114 2 -10 8 -33 13 -50 50 -163 73
-238 76 -253 7 -39 125 -344 178 -463 51 -114 137 -285 176 -351 9 -15 31 -53
50 -85 57 -97 240 -366 312 -459 56 -72 99 -126 120 -155 15 -19 37 -46 48
-60 12 -14 39 -45 59 -69 54 -65 245 -256 336 -336 127 -112 453 -429 531
-516 187 -209 361 -453 432 -604 10 -22 20 -42 23 -45 7 -7 110 -225 110 -233
0 -4 11 -30 24 -59 13 -29 32 -80 42 -113 10 -33 22 -63 27 -66 5 -3 8 -10 7
-15 0 -5 2 -18 6 -29 3 -11 6 -23 5 -27 0 -4 10 -40 23 -80 21 -65 31 -107 51
-211 3 -15 8 -39 11 -55 3 -15 7 -34 8 -42 3 -20 17 -109 22 -140 2 -14 7 -50
10 -80 3 -30 8 -68 11 -85 9 -53 12 -508 3 -565 -5 -30 -11 -73 -14 -95 -2
-22 -10 -62 -17 -90 -6 -27 -13 -61 -14 -75 -2 -14 -4 -27 -6 -30 -1 -3 -3 -9
-3 -15 -4 -28 -60 -181 -76 -208 -11 -17 -17 -34 -14 -39 3 -4 0 -8 -5 -8 -6
0 -11 -5 -11 -10 0 -11 -67 -120 -79 -130 -3 -3 -20 -23 -36 -45 -35 -47 -115
-126 -165 -164 -19 -14 -37 -28 -40 -31 -15 -16 -171 -106 -200 -115 -3 -1
-18 -7 -35 -14 -86 -37 -158 -57 -235 -66 -14 -2 -25 -4 -25 -5 0 -1 -56 -3
-124 -4 -166 -4 -285 18 -458 81 -28 11 -58 25 -67 32 -9 8 -16 10 -16 6 0 -7
-100 63 -110 76 -3 4 -37 31 -75 60 -121 90 -252 138 -382 140 -130 2 -242
-72 -301 -200 -23 -48 -27 -70 -26 -146 0 -61 5 -102 17 -128 9 -20 16 -40 17
-42 1 -17 137 -155 152 -155 5 0 7 -4 4 -9 -6 -10 -156 -7 -216 4 -19 3 -60
13 -90 21 -30 8 -62 16 -70 18 -20 5 -117 44 -160 64 -215 101 -426 303 -533
510 -32 62 -36 74 -25 92 9 14 24 20 49 20 46 0 163 35 192 58 115 91 177 222
164 349 -7 68 -58 178 -100 216 -52 47 -116 89 -127 82 -6 -3 -10 -2 -10 3 0
11 -50 24 -100 27 -20 0 -41 4 -46 8 -6 3 -14 3 -18 0 -4 -4 -17 -8 -29 -8
-12 -1 -36 -5 -52 -10 -17 -5 -32 -9 -35 -9 -3 -1 -25 -11 -51 -24 -52 -25
-179 -144 -179 -168 0 -3 -16 -38 -35 -78 -30 -62 -68 -189 -64 -213 1 -4 0
-10 -1 -13 -13 -31 -17 -219 -5 -224 5 -2 4 -5 -3 -5 -9 -1 -10 -6 -3 -20 6
-10 8 -21 5 -23 -2 -3 0 -27 7 -54 6 -27 12 -58 14 -69 15 -108 176 -443 250
-521 5 -6 24 -27 40 -48 67 -84 206 -217 415 -397 108 -93 174 -159 160 -160
-39 -3 -105 -15 -105 -19 0 -1 -7 -3 -16 -5 -31 -6 -139 -58 -139 -66 0 -5 -5
-9 -10 -9 -12 0 -54 -42 -77 -77 -38 -57 -52 -228 -24 -282 7 -11 9 -21 6 -21
-3 0 0 -10 7 -22 7 -13 12 -26 13 -30 0 -4 20 -37 44 -73 34 -52 60 -78 117
-115 107 -70 292 -133 427 -145 59 -6 219 -6 257 0 14 2 44 6 67 9 61 9 174
33 203 44 14 5 27 10 30 10 30 2 148 46 265 98 22 10 42 18 45 19 3 0 29 13
58 28 71 36 88 35 101 -6 15 -44 96 -176 126 -204 40 -38 128 -89 185 -108 57
-19 210 -28 210 -13 0 5 5 6 10 3 10 -6 142 39 230 78 25 11 47 21 50 22 26 6
184 96 188 107 2 4 8 8 14 8 9 0 165 105 178 120 3 3 30 25 60 48 71 56 163
136 221 192 26 25 60 57 76 71 74 68 253 279 314 370 l17 24 12 -45 c17 -62
43 -111 74 -137 14 -13 26 -21 26 -19 0 3 12 -1 26 -9 51 -26 174 2 230 53 10
10 37 31 59 47 22 17 46 36 53 43 8 7 30 25 50 40 20 15 48 38 63 52 14 14 55
50 90 80 104 90 449 440 449 456 0 3 10 15 23 27 13 12 41 44 62 72 22 27 46
56 52 63 7 7 34 41 60 75 26 34 51 64 55 65 4 2 8 10 8 17 0 7 4 15 8 17 4 2
23 26 42 53 19 28 38 52 41 55 3 3 40 57 82 120 42 63 81 120 87 127 5 7 10
14 10 17 0 2 24 44 53 92 94 157 118 199 117 207 -1 5 7 15 17 23 10 7 15 14
10 14 -4 0 3 17 16 38 21 31 159 307 163 322 0 3 9 23 19 45 10 22 19 42 20
45 1 3 6 16 12 30 32 75 105 260 108 275 2 6 19 58 39 116 19 58 38 117 40
130 3 13 5 24 6 24 1 0 3 7 5 15 2 8 22 85 45 170 39 152 49 195 55 235 2 11
4 20 5 20 2 0 6 19 13 60 5 28 23 126 31 170 13 69 36 215 35 222 -1 4 0 10 1
13 8 22 22 152 24 227 0 29 3 53 6 53 9 0 12 138 13 545 1 350 -4 495 -19 610
-2 17 -6 53 -9 80 -3 28 -7 61 -9 75 -2 14 -7 43 -11 65 -7 46 -32 178 -46
245 -6 25 -12 56 -14 70 -6 33 -13 65 -15 65 -1 0 -3 10 -6 22 -3 21 -32 129
-76 288 -11 39 -21 79 -24 90 -6 30 -13 62 -20 88 -3 12 -6 31 -8 42 -1 11 -8
29 -14 40 -12 23 -83 89 -111 105 -11 5 -51 34 -89 62 -38 29 -104 80 -148
113 -43 33 -81 62 -84 65 -3 3 -30 25 -60 50 -54 43 -87 71 -186 157 -27 23
-60 52 -74 63 -135 115 -359 337 -560 556 -55 59 -207 239 -235 278 -11 16
-35 44 -52 65 -18 20 -33 39 -33 43 0 4 -6 13 -13 20 -54 56 -280 393 -386
576 -39 68 -71 125 -71 128 0 2 -18 36 -39 74 -22 37 -37 71 -33 74 3 3 0 6
-6 6 -7 0 -12 4 -12 10 0 5 -21 53 -46 107 -61 132 -93 205 -93 218 0 3 -8 20
-17 38 -22 40 -120 319 -146 412 -37 132 -108 418 -112 454 -3 20 -5 36 -6 36
-2 0 -8 32 -15 80 -3 22 -7 51 -9 65 -7 39 -18 122 -22 155 -1 17 -5 48 -8 70
-3 21 -8 78 -12 125 -3 47 -8 101 -10 120 -5 52 -5 468 0 520 3 25 8 92 11
150 4 57 8 107 10 110 1 3 6 34 10 70 13 117 14 125 20 160 4 19 8 49 10 65 1
17 4 30 5 30 1 0 3 11 5 25 9 71 30 182 61 315 9 39 17 77 19 85 1 8 5 22 8
30 4 8 9 26 11 40 9 45 36 143 72 255 20 61 37 117 39 125 14 55 46 138 94
243 17 37 31 70 31 73 0 18 244 491 282 547 11 15 16 27 12 27 -4 0 0 8 8 18
9 9 24 33 33 52 10 19 21 37 24 40 3 3 12 16 19 29 8 13 22 39 32 57 11 18 34
57 53 86 68 106 105 165 157 248 29 47 65 103 79 125 14 22 26 42 26 45 0 3
20 39 45 80 108 184 214 466 236 629 3 25 8 55 11 66 8 34 10 393 2 453 -4 31
-10 82 -14 112 -7 60 -34 202 -40 208 -2 2 -6 -10 -10 -26z m-1215 -8377 c19
-6 45 -11 58 -10 12 1 22 -2 22 -7 0 -4 9 -8 21 -8 11 0 55 -8 97 -19 43 -10
122 -29 177 -41 55 -12 124 -29 154 -36 29 -7 58 -11 62 -8 5 3 9 0 9 -6 0 -7
6 -10 14 -7 8 3 18 -4 24 -18 6 -13 7 -25 3 -27 -5 -2 -11 -21 -15 -43 -19
-130 -62 -287 -98 -360 -13 -25 -43 -56 -81 -85 -65 -46 -287 -166 -287 -154
0 3 -6 2 -12 -4 -11 -8 -46 -20 -108 -37 -3 -1 -23 -7 -45 -13 -58 -17 -62
-16 -88 26 -29 45 -77 164 -82 201 -2 14 -4 26 -5 26 -10 0 -23 152 -22 265 0
123 3 151 28 263 17 76 30 107 48 120 13 8 75 0 126 -18z"/>
<path d="M16440 14355 c-7 -8 -19 -15 -27 -15 -7 0 -16 -7 -19 -15 -4 -8 -10
-13 -14 -10 -5 3 -15 -2 -23 -10 -9 -8 -18 -15 -21 -15 -10 0 -311 -193 -314
-202 -2 -4 -10 -8 -18 -8 -8 0 -14 -4 -14 -8 0 -4 -14 -16 -31 -26 -32 -19
-251 -181 -291 -215 -12 -11 -34 -30 -48 -41 -14 -12 -47 -41 -73 -64 -111
-94 -279 -268 -375 -386 -29 -36 -58 -72 -66 -80 -7 -8 -39 -53 -72 -100 -32
-47 -61 -87 -65 -90 -3 -3 -17 -24 -30 -46 -13 -23 -40 -68 -59 -100 -19 -33
-34 -62 -32 -66 1 -5 -2 -8 -7 -8 -10 0 -201 -380 -201 -400 0 -7 -6 -21 -13
-29 -7 -9 -19 -34 -26 -56 -7 -22 -21 -59 -32 -82 -10 -24 -19 -49 -19 -56 0
-7 -4 -17 -9 -22 -5 -6 -27 -62 -49 -125 -22 -63 -45 -128 -52 -145 -21 -55
-140 -448 -155 -515 -2 -8 -18 -67 -36 -130 -17 -63 -33 -122 -34 -130 -1 -8
-7 -27 -13 -41 -6 -15 -13 -42 -15 -60 -3 -19 -6 -34 -7 -34 -1 0 -3 -7 -5
-15 -1 -8 -20 -82 -40 -165 -21 -82 -39 -159 -41 -170 -2 -11 -10 -47 -18 -81
-8 -34 -17 -72 -20 -85 -2 -13 -16 -76 -31 -139 -14 -63 -28 -124 -30 -135 -4
-19 -8 -34 -21 -95 -3 -14 -7 -36 -10 -50 -11 -55 -56 -266 -60 -285 -9 -35
-15 -69 -19 -95 -2 -14 -4 -25 -5 -25 -1 0 -3 -7 -5 -15 -2 -8 -6 -28 -10 -45
-3 -16 -8 -41 -10 -55 -2 -14 -4 -25 -5 -25 -1 0 -3 -11 -5 -25 -7 -61 -49
-250 -72 -321 -8 -25 -16 -55 -18 -65 -2 -10 -4 -19 -5 -19 -1 0 -3 -7 -5 -15
-10 -55 -148 -352 -234 -505 -45 -79 -164 -255 -174 -255 -6 0 -7 -3 -4 -6 6
-6 -76 -120 -98 -136 -5 -4 -7 -8 -2 -8 4 0 -1 -8 -10 -18 -24 -25 -86 -102
-96 -118 -7 -11 -60 -74 -97 -114 -8 -8 -27 -31 -41 -50 -15 -19 -42 -51 -60
-72 -19 -20 -56 -61 -84 -92 -27 -32 -70 -79 -95 -105 -25 -27 -70 -77 -100
-111 -30 -34 -71 -79 -90 -99 -35 -38 -160 -176 -193 -215 -10 -12 -40 -45
-65 -75 -26 -30 -63 -73 -83 -95 -19 -23 -53 -63 -75 -91 -21 -27 -46 -58 -54
-68 -8 -11 -20 -24 -25 -31 -6 -6 -43 -56 -84 -111 -41 -55 -87 -117 -103
-137 -15 -20 -28 -40 -28 -43 0 -3 -22 -38 -48 -78 -27 -40 -66 -101 -86 -137
-57 -100 -176 -347 -176 -364 0 -9 -4 -16 -10 -16 -5 0 -10 -9 -10 -20 0 -11
-4 -28 -9 -38 -8 -14 -63 -174 -66 -192 -1 -3 -4 -14 -8 -25 -3 -11 -8 -31
-11 -45 -3 -14 -8 -36 -11 -50 -12 -52 -35 -184 -32 -187 2 -1 23 32 47 74 47
80 179 268 224 316 14 15 26 30 26 33 0 26 441 455 489 476 9 4 12 7 7 7 -17
2 333 241 352 241 7 0 12 4 12 8 0 5 12 14 28 21 15 7 38 20 52 29 14 9 27 17
30 17 10 2 85 40 90 46 7 9 158 79 170 79 5 0 10 4 10 8 0 5 6 9 13 9 6 0 47
17 90 37 43 20 80 36 82 36 23 0 498 238 603 302 34 21 65 38 67 38 18 0 358
224 485 319 87 65 88 66 199 159 115 97 261 239 346 337 28 32 55 63 60 69 57
64 105 126 105 135 0 6 5 11 10 11 6 0 10 5 10 10 0 6 5 16 10 23 38 45 50 61
50 67 0 3 8 15 18 26 10 10 18 21 18 24 0 3 18 32 39 65 33 53 169 308 174
327 3 10 29 75 52 125 10 23 21 50 22 60 2 10 10 32 16 48 7 17 14 37 16 46 2
9 10 36 18 60 13 39 36 116 41 144 2 6 8 28 14 50 13 47 21 85 28 139 3 22 7
43 9 47 3 4 7 24 10 45 3 22 10 64 15 94 6 30 12 74 15 98 3 23 8 61 11 85 3
23 7 67 9 97 2 30 5 55 6 55 2 0 11 149 12 227 1 43 6 78 11 78 5 0 3 6 -3 13
-6 8 -7 17 -3 21 12 12 10 1076 -3 1076 -6 0 -7 3 0 8 13 9 14 55 0 64 -7 5
-7 8 1 8 12 0 13 38 1 58 -5 6 -4 12 0 12 5 0 9 62 10 138 2 218 8 392 13 392
3 0 5 28 6 63 1 86 13 224 29 337 8 52 17 115 20 140 4 24 8 47 10 50 2 3 6
29 10 57 3 29 10 67 15 84 5 17 9 34 8 38 0 3 0 8 2 11 1 3 3 16 6 30 8 47 47
195 66 255 11 33 21 68 23 78 2 9 6 21 9 25 3 5 7 19 9 33 4 22 40 117 72 194
7 17 19 46 26 65 47 117 260 516 288 540 3 3 19 25 35 50 33 50 172 238 193
258 12 13 18 32 9 32 -2 0 -9 -7 -16 -15z"/>
<path d="M4440 13446 c0 -8 9 -54 21 -103 12 -48 23 -98 25 -110 2 -13 7 -35
10 -50 3 -16 7 -39 8 -53 2 -14 7 -45 12 -70 21 -115 7 -431 -23 -525 -4 -11
-7 -27 -9 -35 -3 -26 -45 -153 -66 -200 -37 -86 -112 -230 -119 -230 -4 0 -11
-10 -14 -21 -11 -34 -63 -79 -93 -81 -100 -5 -240 -73 -305 -147 -15 -17 -25
-31 -21 -31 3 0 -2 -7 -10 -16 -44 -44 -184 -343 -171 -364 3 -6 1 -10 -6 -10
-7 0 -9 -3 -6 -7 4 -3 2 -12 -3 -19 -6 -6 -10 -16 -9 -20 1 -5 0 -16 -4 -24
-8 -22 -19 -71 -23 -104 -2 -15 -8 -54 -13 -85 -11 -61 -7 -378 4 -426 4 -16
8 -43 10 -60 2 -16 6 -42 9 -57 3 -16 8 -38 10 -50 6 -37 36 -153 73 -288 19
-69 36 -132 38 -140 10 -45 124 -349 161 -433 24 -53 44 -102 44 -107 0 -6 5
-10 12 -10 6 0 9 -3 5 -6 -6 -6 102 -226 134 -274 9 -14 34 -56 55 -94 51 -89
49 -86 119 -190 33 -50 69 -104 80 -122 11 -17 30 -45 42 -60 66 -84 83 -107
83 -113 0 -4 8 -16 18 -27 9 -10 35 -44 57 -74 22 -30 43 -57 47 -58 5 -2 6
-8 2 -13 -3 -5 -1 -9 5 -9 5 0 31 -30 57 -67 27 -38 52 -72 57 -78 4 -5 33
-44 63 -85 30 -41 63 -86 74 -100 10 -14 51 -67 90 -118 63 -82 74 -92 88 -80
9 7 18 13 20 14 2 1 -22 46 -52 100 -30 55 -65 118 -78 141 -13 23 -52 92 -88
153 -109 186 -205 370 -201 385 1 5 -4 14 -11 20 -7 5 -14 19 -16 29 -2 10
-14 42 -26 70 -13 28 -35 88 -50 133 -15 46 -32 85 -37 89 -5 3 -7 9 -5 13 3
4 -8 47 -24 95 -16 48 -32 104 -36 124 -4 20 -9 42 -13 47 -3 6 -7 17 -8 25
-1 8 -16 76 -33 149 -35 156 -41 183 -45 231 -2 19 -4 35 -5 35 -3 0 -7 34
-15 110 -3 39 -9 86 -11 105 -14 108 -25 560 -14 560 3 0 5 15 5 33 -1 17 2
44 6 60 5 19 4 25 -3 21 -7 -4 -8 -2 -4 5 4 7 9 29 11 49 2 20 6 55 9 77 3 22
8 56 10 75 11 88 46 265 60 300 3 8 8 26 10 40 14 71 76 278 100 335 8 17 22
55 31 85 10 30 33 88 51 128 18 39 30 72 27 72 -3 0 1 8 10 18 10 10 14 22 10
25 -3 4 -1 7 5 7 7 0 12 7 12 16 0 18 262 534 370 728 17 32 50 95 73 140 22
45 44 83 47 86 8 6 57 129 60 150 4 28 0 40 -13 40 -16 0 -217 -197 -217 -212
0 -6 -3 -9 -6 -6 -3 3 -29 -19 -58 -49 -33 -35 -56 -51 -60 -44 -4 6 -2 11 4
11 6 0 8 5 4 11 -3 6 -8 39 -10 72 -4 69 -4 71 -27 145 -19 62 -76 172 -89
172 -5 0 -7 4 -4 9 8 12 -108 120 -174 162 -121 78 -120 77 -120 55z"/>
<path d="M16376 10058 c-5 -13 -19 -135 -31 -253 -3 -33 -7 -71 -10 -85 -3
-22 -8 -57 -20 -155 -2 -16 -7 -50 -10 -75 -3 -25 -8 -61 -11 -80 -14 -103
-41 -229 -89 -405 -8 -33 -17 -67 -19 -76 -10 -42 -131 -388 -146 -419 -10
-19 -18 -37 -18 -40 -4 -47 -228 -527 -315 -673 -26 -43 -47 -81 -47 -83 0 -9
-84 -139 -92 -142 -4 -2 -8 -8 -8 -13 0 -5 -17 -34 -37 -65 -21 -31 -49 -73
-63 -94 -14 -21 -35 -51 -46 -66 -123 -164 -159 -209 -166 -212 -4 -2 -8 -8
-8 -14 0 -5 -16 -26 -35 -46 -19 -20 -35 -40 -35 -44 0 -4 -8 -15 -18 -25 -10
-10 -45 -49 -77 -88 -105 -121 -196 -215 -369 -380 -23 -22 -64 -58 -90 -80
-27 -22 -58 -48 -70 -59 -11 -10 -37 -30 -56 -45 -19 -14 -41 -32 -49 -39 -37
-35 -329 -247 -431 -313 -396 -254 -669 -390 -1075 -535 -71 -25 -137 -49
-145 -52 -8 -3 -18 -4 -22 -4 -5 1 -8 -2 -8 -6 0 -5 -6 -9 -13 -9 -7 0 -60
-19 -117 -43 -58 -23 -109 -43 -115 -45 -14 -3 -40 -14 -103 -41 -29 -13 -80
-36 -115 -50 -132 -55 -444 -216 -458 -237 -3 -5 -8 -8 -10 -7 -6 2 -43 -13
-54 -22 -5 -5 -32 -23 -60 -40 -160 -100 -357 -236 -363 -250 -2 -5 -10 -8
-17 -8 -7 0 -15 -3 -17 -8 -1 -4 -46 -41 -98 -82 -123 -97 -127 -101 -160
-130 -15 -14 -56 -50 -91 -80 -74 -65 -360 -349 -438 -435 -196 -219 -347
-489 -386 -690 -2 -11 -7 -31 -10 -45 -5 -22 -16 -128 -17 -155 0 -50 21 -205
32 -235 1 -3 2 -12 1 -22 -1 -9 3 -19 9 -23 5 -3 10 -13 10 -20 0 -31 85 -193
129 -245 59 -71 75 -86 136 -124 102 -65 204 -94 340 -100 151 -6 246 65 282
208 14 57 14 77 4 136 -7 39 -17 70 -22 70 -5 0 -8 3 -7 8 5 15 -35 68 -78
102 -48 38 -89 55 -150 63 -63 7 -91 26 -110 71 -37 93 -7 229 79 355 29 42
54 78 57 81 3 3 18 22 34 44 38 51 116 126 130 126 12 0 96 -167 96 -189 0
-14 20 -49 43 -75 9 -11 17 -24 17 -28 0 -5 4 -7 9 -4 5 3 14 0 20 -8 27 -33
115 -60 196 -60 99 -1 136 15 215 93 64 62 83 95 130 226 18 50 36 94 41 99 5
6 9 18 9 28 0 10 4 18 9 18 5 0 12 12 15 26 4 15 26 54 49 88 22 33 39 61 37
61 -5 0 10 17 96 111 17 19 32 34 35 34 2 0 13 -16 23 -35 11 -19 23 -35 28
-35 4 0 8 -5 8 -10 0 -17 72 -90 105 -108 21 -11 57 -16 121 -17 81 0 96 3
148 30 34 18 64 42 74 60 9 17 20 32 25 33 4 2 7 11 7 19 0 24 80 166 152 269
72 104 197 254 211 254 3 0 23 16 44 35 21 20 55 45 76 57 20 12 37 25 37 30
0 4 5 8 11 8 6 0 29 13 52 28 23 16 49 32 57 35 8 4 29 16 45 27 33 22 229
124 233 121 1 -1 18 5 38 14 59 24 197 66 226 68 16 1 28 6 28 10 0 5 5 5 10
2 6 -3 16 -3 23 2 6 4 21 9 32 10 11 1 56 10 100 18 44 9 94 19 111 21 26 4
95 21 194 48 25 7 264 87 285 96 11 4 36 14 55 20 76 28 231 95 340 148 63 31
118 55 123 54 4 -1 7 3 7 8 0 6 4 10 9 10 13 0 135 73 139 82 2 5 9 8 15 8 13
0 150 90 155 102 2 5 9 8 16 8 7 0 21 8 32 18 10 10 35 29 54 42 82 58 153
123 375 345 105 104 215 219 245 255 30 36 60 70 65 76 6 6 23 27 38 47 159
202 325 335 502 399 83 31 87 32 170 48 53 11 203 14 248 5 15 -3 37 -7 50 -9
12 -3 37 -9 55 -15 17 -5 32 -7 32 -4 0 3 6 1 13 -4 6 -5 35 -18 62 -28 164
-61 295 -169 379 -315 24 -41 56 -86 70 -99 l26 -24 0 39 c0 21 -9 58 -20 82
-10 23 -19 44 -20 47 -2 17 -77 202 -93 230 -6 11 -11 22 -12 25 -1 11 -76
138 -108 184 -56 78 -161 180 -245 239 -91 64 -241 135 -321 152 -12 3 -31 8
-43 11 -13 3 -63 12 -112 19 -112 18 -123 27 -101 86 14 40 47 137 50 149 1 3
5 21 10 40 5 19 10 43 11 53 1 9 2 18 4 20 1 1 3 16 5 32 1 17 6 48 9 70 14
88 37 236 44 292 14 114 6 730 -12 818 -2 11 -7 43 -10 70 -4 28 -9 64 -12 80
-3 17 -7 41 -9 55 -2 14 -7 36 -10 50 -3 14 -8 34 -10 45 -10 52 -17 86 -36
155 -20 74 -55 191 -66 220 -3 8 -8 24 -10 34 -2 11 -8 25 -14 33 -6 7 -9 13
-6 13 3 0 -13 42 -34 93 -22 50 -42 99 -44 107 -2 8 -22 51 -45 95 -80 151
-146 248 -154 223z"/>
<path d="M17144 5619 c-2 -4 -30 -20 -61 -36 -207 -107 -201 -101 -217 -230
-3 -18 -7 -36 -10 -41 -3 -5 -8 -24 -10 -43 -3 -19 -8 -45 -11 -59 -3 -14 -7
-34 -9 -45 -9 -58 -60 -282 -68 -297 -7 -14 -2 -22 23 -37 32 -19 32 -19 55 2
20 19 42 59 49 92 2 6 24 60 50 120 26 61 53 123 60 139 12 28 13 28 23 9 6
-11 13 -31 16 -44 12 -57 15 -70 23 -82 4 -6 8 -16 8 -22 2 -29 18 -75 26 -75
6 0 8 -4 5 -9 -5 -8 17 -74 55 -166 6 -16 14 -37 15 -46 8 -37 122 -241 199
-354 79 -116 114 -191 119 -255 1 -16 4 -32 7 -34 3 -3 3 -34 1 -68 -2 -35 -5
-75 -6 -90 0 -16 -3 -28 -6 -28 -3 0 -7 -26 -8 -59 -2 -41 1 -60 10 -63 7 -3
44 10 82 28 38 19 75 34 83 34 7 0 13 5 13 10 0 6 3 9 8 8 4 -1 32 10 62 24
30 14 99 47 153 72 53 25 97 51 97 58 0 7 -36 48 -80 91 -44 42 -78 77 -75 77
2 0 -10 15 -26 33 -26 27 -101 169 -164 312 -10 22 -44 93 -76 158 -32 65 -58
120 -58 123 0 2 -16 37 -35 77 -19 39 -45 95 -56 122 -12 28 -33 73 -45 100
-13 28 -30 68 -38 90 -8 22 -31 84 -51 138 -20 54 -45 130 -55 170 -11 40 -22
80 -26 89 -6 16 -42 21 -51 7z"/>
<path d="M15839 4935 c-214 -54 -400 -174 -523 -338 -33 -45 -97 -172 -155
-308 -42 -98 -48 -124 -32 -133 12 -8 363 -9 394 -1 14 4 29 16 32 26 6 18
-18 99 -36 124 -3 6 -10 26 -15 45 -4 19 -9 42 -11 50 -10 41 -1 126 17 159 6
12 8 21 5 21 -23 0 114 141 143 148 63 15 157 -19 191 -67 106 -152 132 -322
81 -516 -12 -44 -22 -84 -24 -90 -1 -5 -5 -16 -9 -22 -5 -7 -5 -17 -2 -23 3
-5 2 -10 -3 -10 -5 0 -9 -6 -9 -12 0 -7 -21 -83 -46 -168 -26 -85 -49 -166
-51 -180 -3 -14 -8 -36 -11 -50 -3 -14 -8 -41 -11 -60 -3 -19 -7 -46 -10 -60
-2 -14 -6 -95 -8 -180 -5 -156 14 -341 35 -348 5 -2 6 -8 3 -14 -3 -5 4 -20
17 -34 l22 -24 81 44 c45 24 110 60 144 80 35 20 68 36 73 36 5 0 9 5 9 11 0
5 4 8 9 4 5 -3 12 -1 16 5 3 6 25 20 48 31 23 12 45 27 49 33 4 6 8 7 8 2 0
-4 10 -2 23 6 20 14 242 139 347 196 131 71 202 116 212 136 6 11 10 38 9 59
-3 41 -34 144 -57 189 -8 15 -15 31 -15 35 -1 5 -3 13 -4 18 -2 6 -6 21 -8 35
-20 102 -68 240 -90 260 -22 22 -67 27 -67 9 0 -6 -15 -46 -34 -88 -31 -71
-47 -109 -51 -121 -1 -3 -7 -23 -13 -45 -16 -53 -73 -257 -76 -270 -1 -6 -14
-31 -29 -57 -33 -58 -108 -125 -177 -160 -46 -24 -57 -26 -73 -15 -23 15 -71
149 -89 250 -14 75 -16 229 -4 306 7 40 47 180 63 221 4 8 7 18 8 23 2 4 4 9
5 12 1 3 3 8 5 13 3 10 12 36 50 132 38 96 47 122 50 133 2 4 3 8 5 10 1 1 3
9 5 17 2 8 7 26 10 40 10 42 7 177 -5 199 -6 12 -8 21 -5 21 15 0 -64 127
-105 169 -86 88 -190 117 -311 86z"/>
<path d="M14278 4025 c-1 -2 -28 -6 -58 -10 -30 -4 -59 -10 -65 -13 -5 -3 -16
-7 -25 -8 -36 -5 -61 -14 -121 -44 -173 -87 -270 -189 -342 -360 -77 -183 -91
-382 -41 -620 8 -41 16 -81 16 -87 1 -7 5 -13 10 -13 5 0 8 -6 6 -12 -6 -31
94 -210 156 -277 82 -89 191 -191 205 -191 6 0 11 -3 11 -8 0 -9 166 -115 176
-112 4 1 10 -2 13 -7 9 -12 96 -41 171 -57 125 -26 325 -5 448 46 15 6 29 12
32 13 25 6 150 99 159 118 1 4 11 16 20 25 40 38 137 186 146 222 1 3 5 12 8
20 33 77 47 146 52 240 4 95 -8 167 -45 281 -17 49 -30 95 -30 103 0 7 -7 19
-15 26 -9 7 -13 15 -11 17 8 9 -109 225 -125 231 -5 2 -9 8 -9 13 0 31 -160
210 -254 284 -54 43 -192 122 -253 145 -29 11 -87 22 -130 25 -43 4 -83 8 -90
10 -6 2 -13 2 -15 0z m-109 -262 c84 -12 185 -50 259 -97 23 -14 42 -23 42
-19 0 5 4 3 8 -2 4 -6 27 -26 52 -45 57 -44 131 -120 184 -190 22 -30 44 -56
49 -58 4 -2 7 -9 7 -15 0 -6 6 -18 14 -26 8 -9 34 -54 59 -101 120 -232 161
-474 101 -592 -8 -16 -12 -28 -9 -28 3 0 -2 -14 -11 -31 -25 -48 -93 -108
-138 -121 -42 -11 -148 -14 -201 -5 -44 8 -153 52 -165 67 -3 3 -23 17 -44 30
-45 27 -78 55 -185 160 -161 158 -257 307 -306 475 -9 33 -19 67 -22 75 -24
70 -21 262 6 349 6 19 8 38 5 42 -3 5 -1 9 4 9 5 0 15 14 22 30 14 33 78 92
92 84 4 -3 8 -1 8 4 0 5 28 10 62 11 35 1 64 4 67 6 2 3 9 1 15 -2 6 -4 17 -8
25 -10z"/>
<path d="M12699 2704 c-61 -28 -179 -105 -179 -116 0 -4 -5 -8 -10 -8 -20 0
-148 -137 -196 -210 -67 -102 -117 -255 -129 -390 -2 -19 -6 -53 -9 -75 -3
-22 -8 -64 -11 -94 -3 -30 -8 -58 -11 -63 -3 -4 0 -8 6 -8 6 0 9 -4 6 -9 -10
-16 19 -19 70 -8 27 6 51 14 54 17 3 3 16 7 30 8 36 2 139 36 204 67 39 19 56
32 56 46 0 17 -55 103 -86 136 -30 31 -58 90 -69 144 -7 32 -10 61 -7 63 2 3
6 21 8 41 4 44 62 153 86 161 10 3 18 9 18 14 0 15 67 29 102 21 77 -18 169
-93 227 -186 74 -117 90 -220 96 -610 4 -246 6 -280 27 -400 5 -33 11 -69 13
-80 2 -11 6 -31 10 -45 3 -14 8 -36 11 -49 17 -82 81 -233 131 -309 56 -84 60
-84 152 8 45 44 81 82 81 84 0 2 33 37 73 78 62 64 181 189 432 453 114 120
130 144 130 194 0 47 -18 79 -120 211 -20 25 -39 50 -43 55 -4 6 -18 28 -32
50 -65 110 -112 175 -125 177 -63 6 -70 3 -73 -27 -2 -16 -15 -42 -29 -56 -34
-37 -54 -96 -41 -129 49 -130 72 -323 47 -415 -23 -90 -88 -188 -153 -231 -24
-15 -28 -15 -50 -1 -85 56 -222 328 -230 457 -1 14 -4 30 -7 35 -7 11 -2 345
6 440 12 144 11 187 -9 279 -27 118 -162 249 -297 287 -70 19 -106 18 -160 -7z"/>
</g>
</svg>
